<svg id="Layer_1" data-name="Layer 1" xmlns="http://www.w3.org/2000/svg" viewBox="0 0 15.04 15.04"><defs><style>.cls-1{fill:#fff;}</style></defs><title>instagram-blanco</title><g id="_Grupo_" data-name="&lt;Grupo&gt;"><path id="_Trazado_compuesto_" data-name="&lt;Trazado compuesto&gt;" class="cls-1" d="M937.76,10H931.4a4.34,4.34,0,0,0-4.34,4.34v6.36a4.34,4.34,0,0,0,4.34,4.34h6.36a4.34,4.34,0,0,0,4.34-4.34V14.38A4.34,4.34,0,0,0,937.76,10Zm3,10.81a2.88,2.88,0,0,1-2.88,2.88h-6.51a2.88,2.88,0,0,1-2.88-2.88V14.34a2.88,2.88,0,0,1,2.88-2.88h6.51a2.88,2.88,0,0,1,2.88,2.88v6.51Z" transform="translate(-927.06 -10.04)"/><path id="_Trazado_compuesto_2" data-name="&lt;Trazado compuesto&gt;" class="cls-1" d="M934.58,13.69a3.9,3.9,0,1,0,3.9,3.9A3.9,3.9,0,0,0,934.58,13.69Zm0,6.43a2.53,2.53,0,1,1,2.53-2.53A2.53,2.53,0,0,1,934.58,20.12Z" transform="translate(-927.06 -10.04)"/><circle id="_Trazado_" data-name="&lt;Trazado&gt;" class="cls-1" cx="11.55" cy="3.51" r="0.91"/></g></svg>