<svg id="Layer_1" data-name="Layer 1" xmlns="http://www.w3.org/2000/svg" viewBox="0 0 15.91 14.8"><defs><style>.cls-1{fill:none;stroke:#f39200;stroke-miterlimit:10;stroke-width:0.78px;fill-rule:evenodd;}</style></defs><title>telefono-footer</title><path class="cls-1" d="M1132,839.35a11.77,11.77,0,0,1-5.8-2.26,16,16,0,0,1-5.13-6.07,4.12,4.12,0,0,1,.5-4.64c1.17-1.53,2.48-1.37,3.25.38,0.56,1.29,1.47,2.58.12,4-0.51.52-.13,1,0.19,1.46a10,10,0,0,0,3.52,3.1c0.82,0.44,1.59.6,2.18-.24,1.19-1.74,2.4-.54,3.57,0,0.69,0.29,1.44.63,1.29,1.61a3.26,3.26,0,0,1-2.6,2.61A6.06,6.06,0,0,1,1132,839.35Z" transform="translate(-1120.22 -824.94)"/></svg>