<?xml version="1.0" encoding="utf-8"?>
<!-- Generator: Adobe Illustrator 28.0.0, SVG Export Plug-In . SVG Version: 6.00 Build 0)  -->
<svg version="1.1" id="Layer_1" xmlns="http://www.w3.org/2000/svg" xmlns:xlink="http://www.w3.org/1999/xlink" x="0px" y="0px"
	 viewBox="0 0 208.3 46.3" style="enable-background:new 0 0 208.3 46.3;" xml:space="preserve">
<style type="text/css">
	.st0{fill:#4D4D4D;}
	.st1{fill:#64242F;}
	.st2{fill:#23BBF8;}
</style>
<g>
	<g>
		<g>
			<path class="st0" d="M106.3,38.5c0-2.9,0.1-3.4,0.2-3.9c0.4-1.2,1.4-1.9,2.9-1.9c1.8,0,2.9,1,3.1,2.8c0,0.1,0,0.2-0.1,0.2
				l-1.8,0.3c-0.1,0-0.2,0-0.2-0.2c-0.1-0.8-0.4-1.2-1-1.2c-0.4,0-0.7,0.2-0.8,0.5c-0.1,0.3-0.1,0.4-0.1,3.3c0,2.9,0,3.1,0.1,3.3
				c0.1,0.3,0.5,0.6,0.9,0.6c0.4,0,0.8-0.2,0.9-0.6c0.1-0.2,0.1-0.4,0.1-2.1c0-0.1,0-0.1-0.1-0.1h-0.7c-0.1,0-0.2-0.1-0.2-0.2V38
				c0-0.1,0.1-0.2,0.2-0.2h2.8c0.1,0,0.2,0.1,0.2,0.2v0.5c0,2.9-0.1,3.4-0.2,3.9c-0.4,1.3-1.4,1.9-2.9,1.9c-1.5,0-2.5-0.7-2.9-1.9
				C106.4,41.9,106.3,41.5,106.3,38.5z"/>
		</g>
		<g>
			<path class="st0" d="M114.5,42.4c-0.2-0.5-0.2-1-0.2-3.9s0.1-3.4,0.2-3.9c0.4-1.3,1.4-1.9,2.9-1.9c1.5,0,2.5,0.7,2.9,1.9
				c0.2,0.5,0.2,1,0.2,3.9s-0.1,3.4-0.2,3.9c-0.4,1.3-1.4,1.9-2.9,1.9C115.9,44.4,114.9,43.7,114.5,42.4z M118.2,41.8
				c0.1-0.3,0.1-0.6,0.1-3.3s0-3-0.1-3.3c-0.1-0.3-0.4-0.6-0.8-0.6c-0.4,0-0.7,0.2-0.8,0.6c-0.1,0.3-0.1,0.6-0.1,3.3s0,3,0.1,3.3
				c0.1,0.3,0.4,0.6,0.8,0.6C117.8,42.4,118.1,42.2,118.2,41.8z"/>
		</g>
		<g>
			<path class="st0" d="M122.4,33c0-0.1,0.1-0.2,0.2-0.2h2.9c2.1,0,3,1,3,3c0,1.4-0.5,2.1-1.3,2.5v0c0.8,0.3,1.4,1.1,1.4,2.6
				c0,2.5-1.1,3.3-3.4,3.3h-2.7c-0.1,0-0.2-0.1-0.2-0.2V33z M125.1,37.5c0.9,0,1.1-0.3,1.1-1.4c0-1.1-0.3-1.4-1.1-1.4h-0.5
				c-0.1,0-0.1,0-0.1,0.1v2.6c0,0.1,0,0.1,0.1,0.1H125.1z M124.7,42.4h0.5c0.9,0,1.2-0.4,1.2-1.6c0-1.2-0.3-1.5-1.2-1.5h-0.5
				c-0.1,0-0.1,0-0.1,0.1v2.9C124.6,42.3,124.6,42.4,124.7,42.4z"/>
		</g>
		<g>
			<path class="st0" d="M130.3,33c0-0.1,0.1-0.2,0.2-0.2h1.9c0.1,0,0.2,0.1,0.2,0.2v11c0,0.1-0.1,0.2-0.2,0.2h-1.9
				c-0.1,0-0.2-0.1-0.2-0.2V33z"/>
		</g>
		<g>
			<path class="st0" d="M134.5,33c0-0.1,0.1-0.2,0.2-0.2h5c0.1,0,0.2,0.1,0.2,0.2v1.6c0,0.1-0.1,0.2-0.2,0.2h-2.8
				c-0.1,0-0.1,0-0.1,0.1v2.5c0,0.1,0,0.1,0.1,0.1h2.5c0.1,0,0.2,0.1,0.2,0.2v1.6c0,0.1-0.1,0.2-0.2,0.2h-2.5c-0.1,0-0.1,0-0.1,0.1
				v2.6c0,0.1,0,0.1,0.1,0.1h2.8c0.1,0,0.2,0.1,0.2,0.2v1.6c0,0.1-0.1,0.2-0.2,0.2h-5c-0.1,0-0.2-0.1-0.2-0.2V33z"/>
		</g>
		<g>
			<path class="st0" d="M145.9,44.2c-0.1,0-0.2,0-0.2-0.1l-1.3-4.3h-0.6c-0.1,0-0.1,0-0.1,0.1v4.2c0,0.1-0.1,0.2-0.2,0.2h-1.9
				c-0.1,0-0.2-0.1-0.2-0.2V33c0-0.1,0.1-0.2,0.2-0.2h2.7c2,0,3.3,1,3.3,3.5c0,1.4-0.5,2.4-1.3,2.9l1.6,4.8c0,0.1,0,0.2-0.1,0.2
				H145.9z M145.5,36.3c0-1.2-0.4-1.6-1.2-1.6h-0.5c-0.1,0-0.1,0-0.1,0.1v2.9c0,0.1,0,0.1,0.1,0.1h0.5
				C145.1,37.9,145.5,37.5,145.5,36.3z"/>
		</g>
		<g>
			<path class="st0" d="M149.5,33c0-0.1,0.1-0.2,0.2-0.2h2.1c0.1,0,0.2,0.1,0.2,0.2l1.9,7.1h0.1V33c0-0.1,0.1-0.2,0.2-0.2h1.6
				c0.1,0,0.2,0.1,0.2,0.2v11c0,0.1-0.1,0.2-0.2,0.2h-2c-0.1,0-0.2-0.1-0.2-0.2l-2-7.1h-0.1v7.1c0,0.1-0.1,0.2-0.2,0.2h-1.6
				c-0.1,0-0.2-0.1-0.2-0.2V33z"/>
		</g>
		<g>
			<path class="st0" d="M158,42.4c-0.2-0.5-0.2-1-0.2-3.9s0.1-3.4,0.2-3.9c0.4-1.3,1.4-1.9,2.9-1.9c1.5,0,2.5,0.7,2.9,1.9
				c0.2,0.5,0.2,1,0.2,3.9s-0.1,3.4-0.2,3.9c-0.4,1.3-1.4,1.9-2.9,1.9C159.4,44.4,158.4,43.7,158,42.4z M161.7,41.8
				c0.1-0.3,0.1-0.6,0.1-3.3s0-3-0.1-3.3c-0.1-0.3-0.4-0.6-0.8-0.6c-0.4,0-0.7,0.2-0.8,0.6c-0.1,0.3-0.1,0.6-0.1,3.3s0,3,0.1,3.3
				c0.1,0.3,0.4,0.6,0.8,0.6C161.3,42.4,161.6,42.2,161.7,41.8z"/>
		</g>
	</g>
	<g>
		<g>
			<rect x="85.2" y="37.5" class="st1" width="16.9" height="1.8"/>
		</g>
	</g>
	<g>
		<rect x="168.5" y="37.5" class="st1" width="16.9" height="1.8"/>
	</g>
	<g>
		<g>
			<g>
				<g>
					<g>
						<g>
							<path class="st0" d="M102.2,26.2H85.1V8.9h5.7v12.3h11.4V26.2z"/>
						</g>
						<g>
							<path class="st0" d="M123.5,26.2H118v-1.4c-1.3,1.2-3.1,1.9-5.4,1.9c-4.6,0-8.4-3.7-8.4-9.2c0-5.4,3.9-9.2,8.4-9.2
								c2.2,0,4,0.7,5.4,1.9V8.9h5.5V26.2z M118,17.6c0-2.7-2-4.5-4.2-4.5c-2.4,0-4.2,1.8-4.2,4.5c0,2.7,1.8,4.5,4.2,4.5
								C116,22,118,20.2,118,17.6z"/>
						</g>
						<g>
							<path class="st0" d="M145.2,15.6v10.6h-5.5v-9.4c0-2-1.2-3.4-3-3.4c-2.2,0-3.6,1.5-3.6,4.8v8h-5.5V8.9h5.5v1.7
								c1.3-1.4,3.1-2.2,5.3-2.2C142.5,8.4,145.2,11.2,145.2,15.6z"/>
						</g>
						<g>
							<path class="st0" d="M166.4,26.2h-5.5v-1.7c-1.3,1.4-3.1,2.2-5.3,2.2c-4,0-6.7-2.9-6.7-7.2V8.9h5.5v9.4c0,2,1.2,3.4,3,3.4
								c2.2,0,3.6-1.5,3.6-4.8v-8h5.5V26.2z"/>
						</g>
						<g>
							<path class="st0" d="M174.8,20.6c0.2,1.5,1.6,2,3.1,2c1.4,0,2.2-0.6,2.2-1.4c0-0.6-0.4-1-1.7-1.3l-3.5-0.7
								c-3.2-0.6-5-2.3-5-5c0-3.6,3.1-5.9,7.4-5.9c4.3,0,7.2,2,7.9,5l-5,1c-0.2-1.1-1.2-2-2.9-2c-1.5,0-2,0.7-2,1.3
								c0,0.5,0.2,1,1.3,1.2l4.1,0.8c3.3,0.7,4.8,2.7,4.8,5.2c0,3.8-3.3,5.8-7.9,5.8c-4.1,0-7.6-1.5-8.1-5L174.8,20.6z"/>
						</g>
					</g>
				</g>
			</g>
		</g>
		<g>
			<g>
				<path class="st0" d="M155.3,6.7l2.4-5.2h6.6l-4.1,5.2H155.3z"/>
			</g>
		</g>
	</g>
	<g>
		<g>
			<polygon class="st2" points="61.9,18.1 46.6,33.4 25.2,12 19.8,17.4 46.6,44.2 67.3,23.5 			"/>
		</g>
		<g>
			<polygon class="st2" points="35.9,1.3 25.9,11.3 31.3,16.6 35.9,12 35.9,12 35.9,12 40.8,16.9 46.2,11.6 			"/>
		</g>
		<g>
			<polygon class="st2" points="57.6,1.6 41.5,17.7 46.6,22.7 57.3,12 68,22.7 73.4,17.4 			"/>
		</g>
	</g>
</g>
</svg>
